<svg width="24" height="24" viewBox="0 0 24 24" fill="none" xmlns="http://www.w3.org/2000/svg">
<path d="M13.1003 19.0008C12.9025 19 12.7094 18.9405 12.5455 18.8299C12.3815 18.7194 12.254 18.5627 12.179 18.3796C12.1041 18.1966 12.0851 17.9955 12.1245 17.8017C12.1639 17.6078 12.2599 17.4301 12.4003 17.2908L17.0003 12.7108C17.094 12.6178 17.1684 12.5072 17.2192 12.3854C17.27 12.2635 17.2961 12.1328 17.2961 12.0008C17.2961 11.8688 17.27 11.7381 17.2192 11.6162C17.1684 11.4944 17.094 11.3838 17.0003 11.2908L12.4003 6.71079C12.3066 6.61783 12.2322 6.50723 12.1814 6.38537C12.1306 6.26351 12.1045 6.1328 12.1045 6.00079C12.1045 5.86878 12.1306 5.73808 12.1814 5.61622C12.2322 5.49436 12.3066 5.38376 12.4003 5.29079C12.5877 5.10454 12.8411 5 13.1053 5C13.3695 5 13.6229 5.10454 13.8103 5.29079L18.4003 9.88079C18.9621 10.4433 19.2777 11.2058 19.2777 12.0008C19.2777 12.7958 18.9621 13.5583 18.4003 14.1208L13.8103 18.7108C13.7169 18.8035 13.606 18.8768 13.4842 18.9266C13.3624 18.9763 13.2319 19.0016 13.1003 19.0008Z" fill="white"/>
<path d="M6.1003 19.0008C5.90253 19 5.70944 18.9405 5.54546 18.8299C5.38147 18.7194 5.25396 18.5627 5.17903 18.3796C5.10411 18.1966 5.08514 17.9955 5.12452 17.8017C5.16391 17.6078 5.25988 17.4301 5.4003 17.2908L10.6903 12.0008L5.4003 6.71079C5.30657 6.61783 5.23218 6.50723 5.18141 6.38537C5.13064 6.26351 5.1045 6.1328 5.1045 6.00079C5.1045 5.86878 5.13064 5.73808 5.18141 5.61622C5.23218 5.49436 5.30657 5.38376 5.4003 5.29079C5.58766 5.10454 5.84111 5 6.1053 5C6.36949 5 6.62294 5.10454 6.8103 5.29079L12.8103 11.2908C12.904 11.3838 12.9784 11.4944 13.0292 11.6162C13.08 11.7381 13.1061 11.8688 13.1061 12.0008C13.1061 12.1328 13.08 12.2635 13.0292 12.3854C12.9784 12.5072 12.904 12.6178 12.8103 12.7108L6.8103 18.7108C6.71686 18.8035 6.60604 18.8768 6.48421 18.9266C6.36237 18.9763 6.23191 19.0016 6.1003 19.0008Z" fill="white"/>
</svg>
